<mxfile host="app.diagrams.net" modified="2024-12-23T02:47:17.798Z" agent="Mozilla/5.0 (Macintosh; Intel Mac OS X 10_15_7) AppleWebKit/537.36 (KHTML, like Gecko) Chrome/131.0.0.0 Safari/537.36" etag="y61HmfdEZ8Yr9TbAloGF" version="24.6.3" type="github">
  <diagram id="kgpKYQtTHZ0yAKxKKP6v" name="Page-1">
    <mxGraphModel dx="954" dy="581" grid="1" gridSize="10" guides="1" tooltips="1" connect="1" arrows="1" fold="1" page="1" pageScale="1" pageWidth="850" pageHeight="1100" math="0" shadow="0">
      <root>
        <mxCell id="0" />
        <mxCell id="1" parent="0" />
        <mxCell id="_ohI5Us6N1ytRp0_CfyI-19" style="edgeStyle=orthogonalEdgeStyle;rounded=0;orthogonalLoop=1;jettySize=auto;html=1;" edge="1" parent="1" source="_ohI5Us6N1ytRp0_CfyI-10" target="_ohI5Us6N1ytRp0_CfyI-3">
          <mxGeometry relative="1" as="geometry" />
        </mxCell>
        <mxCell id="_ohI5Us6N1ytRp0_CfyI-21" value="" style="edgeStyle=orthogonalEdgeStyle;rounded=0;orthogonalLoop=1;jettySize=auto;html=1;" edge="1" parent="1" source="_ohI5Us6N1ytRp0_CfyI-10" target="_ohI5Us6N1ytRp0_CfyI-20">
          <mxGeometry relative="1" as="geometry" />
        </mxCell>
        <mxCell id="_ohI5Us6N1ytRp0_CfyI-30" style="edgeStyle=orthogonalEdgeStyle;rounded=0;orthogonalLoop=1;jettySize=auto;html=1;entryX=0;entryY=0.5;entryDx=0;entryDy=0;" edge="1" parent="1" source="_ohI5Us6N1ytRp0_CfyI-10" target="_ohI5Us6N1ytRp0_CfyI-28">
          <mxGeometry relative="1" as="geometry" />
        </mxCell>
        <mxCell id="_ohI5Us6N1ytRp0_CfyI-32" value="截图上传" style="edgeLabel;html=1;align=center;verticalAlign=middle;resizable=0;points=[];" vertex="1" connectable="0" parent="_ohI5Us6N1ytRp0_CfyI-30">
          <mxGeometry x="-0.2889" y="-2" relative="1" as="geometry">
            <mxPoint as="offset" />
          </mxGeometry>
        </mxCell>
        <mxCell id="_ohI5Us6N1ytRp0_CfyI-10" value="pc-screenshot" style="whiteSpace=wrap;html=1;flipH=0;flipV=1;fillColor=#f8cecc;strokeColor=#b85450;" vertex="1" parent="1">
          <mxGeometry x="320" y="140" width="120" height="60" as="geometry" />
        </mxCell>
        <mxCell id="_ohI5Us6N1ytRp0_CfyI-47" value="" style="edgeStyle=orthogonalEdgeStyle;rounded=0;orthogonalLoop=1;jettySize=auto;html=1;horizontal=0;curved=0;entryX=0;entryY=0.5;entryDx=0;entryDy=0;" edge="1" parent="1" source="_ohI5Us6N1ytRp0_CfyI-3" target="_ohI5Us6N1ytRp0_CfyI-46">
          <mxGeometry relative="1" as="geometry" />
        </mxCell>
        <mxCell id="_ohI5Us6N1ytRp0_CfyI-50" style="edgeStyle=orthogonalEdgeStyle;rounded=0;orthogonalLoop=1;jettySize=auto;html=1;" edge="1" parent="1" source="_ohI5Us6N1ytRp0_CfyI-3" target="_ohI5Us6N1ytRp0_CfyI-49">
          <mxGeometry relative="1" as="geometry" />
        </mxCell>
        <mxCell id="_ohI5Us6N1ytRp0_CfyI-52" value="" style="edgeStyle=orthogonalEdgeStyle;rounded=0;orthogonalLoop=1;jettySize=auto;html=1;" edge="1" parent="1" source="_ohI5Us6N1ytRp0_CfyI-3" target="_ohI5Us6N1ytRp0_CfyI-49">
          <mxGeometry relative="1" as="geometry" />
        </mxCell>
        <mxCell id="_ohI5Us6N1ytRp0_CfyI-54" value="" style="edgeStyle=orthogonalEdgeStyle;rounded=0;orthogonalLoop=1;jettySize=auto;html=1;" edge="1" parent="1" source="_ohI5Us6N1ytRp0_CfyI-3" target="_ohI5Us6N1ytRp0_CfyI-49">
          <mxGeometry relative="1" as="geometry" />
        </mxCell>
        <mxCell id="_ohI5Us6N1ytRp0_CfyI-56" value="" style="edgeStyle=orthogonalEdgeStyle;rounded=0;orthogonalLoop=1;jettySize=auto;html=1;" edge="1" parent="1" source="_ohI5Us6N1ytRp0_CfyI-3" target="_ohI5Us6N1ytRp0_CfyI-55">
          <mxGeometry relative="1" as="geometry">
            <Array as="points">
              <mxPoint x="820" y="330" />
              <mxPoint x="820" y="420" />
            </Array>
          </mxGeometry>
        </mxCell>
        <mxCell id="_ohI5Us6N1ytRp0_CfyI-61" value="接口服务" style="edgeLabel;html=1;align=center;verticalAlign=middle;resizable=0;points=[];" vertex="1" connectable="0" parent="_ohI5Us6N1ytRp0_CfyI-56">
          <mxGeometry x="-0.7647" y="1" relative="1" as="geometry">
            <mxPoint as="offset" />
          </mxGeometry>
        </mxCell>
        <mxCell id="_ohI5Us6N1ytRp0_CfyI-58" style="edgeStyle=orthogonalEdgeStyle;rounded=0;orthogonalLoop=1;jettySize=auto;html=1;entryX=0.5;entryY=0;entryDx=0;entryDy=0;" edge="1" parent="1" source="_ohI5Us6N1ytRp0_CfyI-3" target="_ohI5Us6N1ytRp0_CfyI-34">
          <mxGeometry relative="1" as="geometry" />
        </mxCell>
        <mxCell id="_ohI5Us6N1ytRp0_CfyI-60" style="edgeStyle=orthogonalEdgeStyle;rounded=0;orthogonalLoop=1;jettySize=auto;html=1;entryX=0.5;entryY=0;entryDx=0;entryDy=0;" edge="1" parent="1" source="_ohI5Us6N1ytRp0_CfyI-3" target="_ohI5Us6N1ytRp0_CfyI-43">
          <mxGeometry relative="1" as="geometry" />
        </mxCell>
        <mxCell id="_ohI5Us6N1ytRp0_CfyI-3" value="screenshot-service" style="whiteSpace=wrap;html=1;fillColor=#f8cecc;strokeColor=#b85450;" vertex="1" parent="1">
          <mxGeometry x="160" y="300" width="600" height="60" as="geometry" />
        </mxCell>
        <mxCell id="_ohI5Us6N1ytRp0_CfyI-14" style="edgeStyle=orthogonalEdgeStyle;rounded=0;orthogonalLoop=1;jettySize=auto;html=1;entryX=0;entryY=0.5;entryDx=0;entryDy=0;" edge="1" parent="1" source="_ohI5Us6N1ytRp0_CfyI-7" target="_ohI5Us6N1ytRp0_CfyI-13">
          <mxGeometry relative="1" as="geometry" />
        </mxCell>
        <mxCell id="_ohI5Us6N1ytRp0_CfyI-17" style="edgeStyle=orthogonalEdgeStyle;rounded=0;orthogonalLoop=1;jettySize=auto;html=1;" edge="1" parent="1" source="_ohI5Us6N1ytRp0_CfyI-7" target="_ohI5Us6N1ytRp0_CfyI-3">
          <mxGeometry relative="1" as="geometry" />
        </mxCell>
        <mxCell id="_ohI5Us6N1ytRp0_CfyI-18" value="获取执行数据" style="edgeLabel;html=1;align=center;verticalAlign=middle;resizable=0;points=[];" vertex="1" connectable="0" parent="_ohI5Us6N1ytRp0_CfyI-17">
          <mxGeometry x="-0.2667" y="-2" relative="1" as="geometry">
            <mxPoint x="-63" y="17" as="offset" />
          </mxGeometry>
        </mxCell>
        <mxCell id="_ohI5Us6N1ytRp0_CfyI-29" style="edgeStyle=orthogonalEdgeStyle;rounded=0;orthogonalLoop=1;jettySize=auto;html=1;entryX=1;entryY=0.5;entryDx=0;entryDy=0;" edge="1" parent="1" source="_ohI5Us6N1ytRp0_CfyI-7" target="_ohI5Us6N1ytRp0_CfyI-28">
          <mxGeometry relative="1" as="geometry" />
        </mxCell>
        <mxCell id="_ohI5Us6N1ytRp0_CfyI-33" value="截图上传" style="edgeLabel;html=1;align=center;verticalAlign=middle;resizable=0;points=[];" vertex="1" connectable="0" parent="_ohI5Us6N1ytRp0_CfyI-29">
          <mxGeometry x="-0.1556" y="2" relative="1" as="geometry">
            <mxPoint as="offset" />
          </mxGeometry>
        </mxCell>
        <mxCell id="_ohI5Us6N1ytRp0_CfyI-7" value="app-screenshot" style="whiteSpace=wrap;html=1;flipH=0;flipV=1;fillColor=#f8cecc;strokeColor=#b85450;" vertex="1" parent="1">
          <mxGeometry x="480" y="140" width="120" height="60" as="geometry" />
        </mxCell>
        <mxCell id="_ohI5Us6N1ytRp0_CfyI-15" value="android phone" style="whiteSpace=wrap;html=1;flipH=0;flipV=1;fillColor=#d5e8d4;strokeColor=#82b366;" vertex="1" parent="1">
          <mxGeometry x="640" y="40" width="120" height="60" as="geometry" />
        </mxCell>
        <mxCell id="_ohI5Us6N1ytRp0_CfyI-16" value="" style="edgeStyle=orthogonalEdgeStyle;rounded=0;orthogonalLoop=1;jettySize=auto;html=1;" edge="1" parent="1" source="_ohI5Us6N1ytRp0_CfyI-13" target="_ohI5Us6N1ytRp0_CfyI-15">
          <mxGeometry relative="1" as="geometry" />
        </mxCell>
        <mxCell id="_ohI5Us6N1ytRp0_CfyI-25" value="操作" style="edgeLabel;html=1;align=center;verticalAlign=middle;resizable=0;points=[];" vertex="1" connectable="0" parent="_ohI5Us6N1ytRp0_CfyI-16">
          <mxGeometry x="0.05" y="2" relative="1" as="geometry">
            <mxPoint as="offset" />
          </mxGeometry>
        </mxCell>
        <mxCell id="_ohI5Us6N1ytRp0_CfyI-23" value="" style="edgeStyle=orthogonalEdgeStyle;rounded=0;orthogonalLoop=1;jettySize=auto;html=1;" edge="1" parent="1" source="_ohI5Us6N1ytRp0_CfyI-20" target="_ohI5Us6N1ytRp0_CfyI-22">
          <mxGeometry relative="1" as="geometry" />
        </mxCell>
        <mxCell id="_ohI5Us6N1ytRp0_CfyI-24" value="操作" style="edgeLabel;html=1;align=center;verticalAlign=middle;resizable=0;points=[];" vertex="1" connectable="0" parent="_ohI5Us6N1ytRp0_CfyI-23">
          <mxGeometry x="-0.2" y="-1" relative="1" as="geometry">
            <mxPoint as="offset" />
          </mxGeometry>
        </mxCell>
        <mxCell id="_ohI5Us6N1ytRp0_CfyI-20" value="chrome driver" style="whiteSpace=wrap;html=1;flipH=0;flipV=1;fillColor=#e1d5e7;strokeColor=#9673a6;" vertex="1" parent="1">
          <mxGeometry x="160" y="140" width="120" height="60" as="geometry" />
        </mxCell>
        <mxCell id="_ohI5Us6N1ytRp0_CfyI-22" value="google chrome&amp;nbsp;" style="whiteSpace=wrap;html=1;fillColor=#d5e8d4;strokeColor=#82b366;" vertex="1" parent="1">
          <mxGeometry x="160" y="40" width="120" height="60" as="geometry" />
        </mxCell>
        <mxCell id="_ohI5Us6N1ytRp0_CfyI-28" value="腾讯云OSS" style="whiteSpace=wrap;html=1;fillColor=#1ba1e2;fontColor=#ffffff;strokeColor=#006EAF;" vertex="1" parent="1">
          <mxGeometry x="400" y="40" width="120" height="60" as="geometry" />
        </mxCell>
        <mxCell id="_ohI5Us6N1ytRp0_CfyI-34" value="mysql" style="whiteSpace=wrap;html=1;fillColor=#1ba1e2;fontColor=#ffffff;strokeColor=#006EAF;" vertex="1" parent="1">
          <mxGeometry x="160" y="400" width="120" height="60" as="geometry" />
        </mxCell>
        <mxCell id="_ohI5Us6N1ytRp0_CfyI-40" style="edgeStyle=orthogonalEdgeStyle;rounded=0;orthogonalLoop=1;jettySize=auto;html=1;exitX=0;exitY=0.5;exitDx=0;exitDy=0;entryX=0.75;entryY=1;entryDx=0;entryDy=0;" edge="1" parent="1" source="_ohI5Us6N1ytRp0_CfyI-38" target="_ohI5Us6N1ytRp0_CfyI-7">
          <mxGeometry relative="1" as="geometry">
            <Array as="points">
              <mxPoint x="570" y="240" />
            </Array>
          </mxGeometry>
        </mxCell>
        <mxCell id="_ohI5Us6N1ytRp0_CfyI-42" value="守护" style="edgeLabel;html=1;align=center;verticalAlign=middle;resizable=0;points=[];" vertex="1" connectable="0" parent="_ohI5Us6N1ytRp0_CfyI-40">
          <mxGeometry y="-1" relative="1" as="geometry">
            <mxPoint as="offset" />
          </mxGeometry>
        </mxCell>
        <mxCell id="_ohI5Us6N1ytRp0_CfyI-43" value="redis" style="whiteSpace=wrap;html=1;fillColor=#1ba1e2;fontColor=#ffffff;strokeColor=#006EAF;" vertex="1" parent="1">
          <mxGeometry x="400" y="400" width="120" height="60" as="geometry" />
        </mxCell>
        <mxCell id="_ohI5Us6N1ytRp0_CfyI-44" style="edgeStyle=orthogonalEdgeStyle;rounded=0;orthogonalLoop=1;jettySize=auto;html=1;" edge="1" parent="1" source="_ohI5Us6N1ytRp0_CfyI-3">
          <mxGeometry relative="1" as="geometry">
            <mxPoint x="710" y="400" as="targetPoint" />
            <Array as="points">
              <mxPoint x="460" y="380" />
              <mxPoint x="710" y="380" />
            </Array>
          </mxGeometry>
        </mxCell>
        <mxCell id="_ohI5Us6N1ytRp0_CfyI-46" value="OM" style="whiteSpace=wrap;html=1;fillColor=#fff2cc;strokeColor=#d6b656;" vertex="1" parent="1">
          <mxGeometry x="880" y="220" width="120" height="60" as="geometry" />
        </mxCell>
        <mxCell id="_ohI5Us6N1ytRp0_CfyI-49" value="内部BI" style="whiteSpace=wrap;html=1;fillColor=#fff2cc;strokeColor=#d6b656;" vertex="1" parent="1">
          <mxGeometry x="880" y="300" width="120" height="60" as="geometry" />
        </mxCell>
        <mxCell id="_ohI5Us6N1ytRp0_CfyI-55" value="DSP" style="whiteSpace=wrap;html=1;fillColor=#fff2cc;strokeColor=#d6b656;" vertex="1" parent="1">
          <mxGeometry x="880" y="380" width="120" height="60" as="geometry" />
        </mxCell>
        <mxCell id="_ohI5Us6N1ytRp0_CfyI-13" value="appium-server" style="whiteSpace=wrap;html=1;flipH=0;flipV=1;fillColor=#e1d5e7;strokeColor=#9673a6;" vertex="1" parent="1">
          <mxGeometry x="640" y="140" width="120" height="60" as="geometry" />
        </mxCell>
        <mxCell id="_ohI5Us6N1ytRp0_CfyI-38" value="daemon-app" style="whiteSpace=wrap;html=1;fillColor=#f8cecc;strokeColor=#b85450;" vertex="1" parent="1">
          <mxGeometry x="640" y="220" width="80" height="40" as="geometry" />
        </mxCell>
        <mxCell id="_ohI5Us6N1ytRp0_CfyI-59" value="腾讯云OSS" style="whiteSpace=wrap;html=1;fillColor=#1ba1e2;fontColor=#ffffff;strokeColor=#006EAF;" vertex="1" parent="1">
          <mxGeometry x="640" y="400" width="120" height="60" as="geometry" />
        </mxCell>
      </root>
    </mxGraphModel>
  </diagram>
</mxfile>
